<?xml version="1.0" encoding="utf-8"?>
<!-- Generator: Adobe Illustrator 16.0.0, SVG Export Plug-In . SVG Version: 6.00 Build 0)  -->
<!DOCTYPE svg PUBLIC "-//W3C//DTD SVG 1.1//EN" "http://www.w3.org/Graphics/SVG/1.1/DTD/svg11.dtd">
<svg version="1.1" id="Layer_1" xmlns="http://www.w3.org/2000/svg" xmlns:xlink="http://www.w3.org/1999/xlink" x="0px" y="0px"
	 width="16px" height="17px" viewBox="0 0 16 17" enable-background="new 0 0 16 17" xml:space="preserve">
<circle fill="#A5A4A4" cx="8.249" cy="8.5" r="7.416"/>
<path fill="#FDFDFE" d="M12.473,8.009c-0.35,0-0.635,0.284-0.635,0.634c0,1.98-1.609,3.589-3.589,3.589
	c-1.979,0-3.59-1.609-3.59-3.589c0-1.979,1.611-3.59,3.59-3.59l0,0v1.056l2.535-1.689L8.249,2.73v1.056l0,0
	c-2.679,0-4.857,2.18-4.857,4.857c0,2.679,2.179,4.857,4.857,4.857c2.677,0,4.857-2.178,4.857-4.857
	C13.105,8.293,12.822,8.009,12.473,8.009z"/>
</svg>
